<svg width="65" height="65" viewBox="0 0 65 65" fill="none" xmlns="http://www.w3.org/2000/svg">
<path d="M23.9282 51.6753C23.9282 51.6753 22.1102 50.5974 20.9181 49.5536C20.2357 48.9581 19.6435 48.2667 19.16 47.5011C18.8075 47.023 18.4982 46.5147 18.2355 45.982C16.9687 43.3696 16.6685 40.3928 17.388 37.5799C18.1076 34.7671 19.8003 32.3001 22.166 30.6168C24.5316 28.9335 27.4171 28.1428 30.3104 28.3848C33.2037 28.6269 35.9177 29.8861 37.9707 31.9391C40.0238 33.9921 41.2831 36.7061 41.5252 39.5994C41.7674 42.4926 40.9767 45.3782 39.2934 47.7438C37.6102 50.1095 35.1433 51.8024 32.3305 52.522C29.5176 53.2416 26.5407 52.942 23.9282 51.6753Z" fill="#00A9EE"/>
<path d="M27.2036 40.2432C27.2285 40.3214 27.2577 40.4067 27.2909 40.4989C27.3254 40.5942 27.365 40.6875 27.4094 40.7785C27.4554 40.8727 27.5072 40.964 27.5645 41.0517C27.6202 41.1378 27.6864 41.2167 27.7616 41.2863C27.8342 41.3536 27.9171 41.4088 28.0072 41.4498C28.1015 41.4915 28.2036 41.5123 28.3067 41.5109C28.4004 41.5135 28.4937 41.4974 28.5812 41.4635C28.6497 41.4368 28.711 41.3945 28.7601 41.3399C28.8093 41.2853 28.8451 41.2199 28.8645 41.1491C28.8855 41.076 28.896 41.0004 28.8956 40.9244C28.8991 40.8474 28.884 40.7708 28.8517 40.7008C28.8193 40.6309 28.7706 40.5698 28.7097 40.5226C28.5513 40.4163 28.3621 40.3656 28.1719 40.3785C28.1436 40.3785 28.1153 40.3793 28.0871 40.3809C28.0588 40.3826 28.0306 40.3851 28.0023 40.3884L28.0023 40.0086C28.0143 40.0102 28.0264 40.011 28.0385 40.011L28.0572 40.011C28.1623 40.0126 28.2669 39.9979 28.3674 39.9674C28.4503 39.9423 28.5278 39.902 28.5959 39.8486C28.6551 39.8016 28.7029 39.7419 28.7356 39.6738C28.767 39.6084 28.7832 39.5368 28.7831 39.4642C28.7842 39.4033 28.7723 39.3429 28.7482 39.287C28.7262 39.2376 28.6939 39.1935 28.6533 39.1578C28.6119 39.122 28.5635 39.0952 28.5111 39.0792C28.4529 39.0613 28.3923 39.0526 28.3315 39.0533C28.2883 39.0533 28.2451 39.0562 28.2022 39.0621C28.1577 39.0685 28.1135 39.0777 28.07 39.0895C28.0196 39.103 27.9698 39.1191 27.921 39.1377C27.8686 39.1577 27.8091 39.1827 27.7425 39.2126L27.6007 38.8706C27.7209 38.8111 27.8464 38.763 27.9755 38.7271C28.0951 38.6947 28.2185 38.6783 28.3423 38.6784C28.456 38.6773 28.5688 38.6967 28.6755 38.7358C28.7731 38.7711 28.8629 38.8249 28.9401 38.8942C29.0139 38.9616 29.0727 39.0437 29.1129 39.1351C29.1549 39.2302 29.1762 39.3331 29.1753 39.4371C29.175 39.5841 29.1353 39.7283 29.0603 39.8547C28.9852 39.9811 28.8777 40.0851 28.7488 40.1558L28.7488 40.1658C28.8512 40.2067 28.9458 40.2649 29.0284 40.3379C29.0766 40.3465 29.1278 40.3532 29.1818 40.3578C29.2358 40.3625 29.2853 40.365 29.3303 40.3653C29.3795 40.3651 29.4287 40.3618 29.4775 40.3554C29.5314 40.3481 29.5845 40.3356 29.636 40.3179C29.6934 40.2979 29.7486 40.2719 29.8006 40.2403C29.8611 40.2034 29.9175 40.1601 29.9686 40.1111L29.9686 38.7281L30.9019 38.7281L30.9019 39.0949L30.3778 39.0949L30.3778 42.1077L29.9686 42.1077L29.9686 40.5526L29.9587 40.5501C29.8777 40.607 29.7873 40.6492 29.6917 40.6749C29.6075 40.695 29.5212 40.705 29.4346 40.7048C29.4063 40.7048 29.3772 40.7036 29.3472 40.7011C29.3172 40.6986 29.2865 40.6957 29.2551 40.6923L29.2526 40.7023C29.2813 40.7831 29.2949 40.8685 29.2926 40.9543C29.2939 41.0823 29.271 41.2095 29.2252 41.3291C29.1821 41.4409 29.1161 41.5425 29.0314 41.6273C28.9446 41.7131 28.8409 41.7798 28.7269 41.8232C28.5989 41.8714 28.4629 41.8951 28.3262 41.8931C28.1792 41.8952 28.0333 41.8666 27.898 41.8091C27.7732 41.7548 27.6574 41.6821 27.5542 41.5934C27.4524 41.5059 27.3623 41.4057 27.2859 41.2952C27.2121 41.1891 27.1462 41.0777 27.0888 40.9619C27.0375 40.8587 26.9927 40.7524 26.9545 40.6437C26.9193 40.5431 26.8934 40.4594 26.877 40.3928L27.2036 40.2432Z" fill="white" stroke="white" stroke-width="0.200142" stroke-linecap="round"/>
<path d="M36.9895 42.0482L37.2568 41.857L37.3925 42.1765C37.3178 42.2245 37.2376 42.2635 37.1538 42.2928C37.0833 42.3186 37.0091 42.3327 36.934 42.3345C36.8991 42.3368 36.864 42.3309 36.8318 42.3172C36.7995 42.3035 36.7709 42.2823 36.7483 42.2556C36.7029 42.1922 36.6806 42.1151 36.6851 42.0373L36.6851 41.3146C36.6281 41.3335 36.5698 41.3478 36.5105 41.3574C36.4485 41.3674 36.3858 41.3724 36.323 41.3723C36.2315 41.3734 36.1409 41.3547 36.0574 41.3175C35.9778 41.2818 35.9068 41.2295 35.849 41.1642L35.8453 41.1642C35.8054 41.3373 35.7112 41.4932 35.5766 41.6091C35.4479 41.7102 35.2878 41.7631 35.1242 41.7586C35.0372 41.7594 34.9507 41.7446 34.8688 41.7149C34.7889 41.6853 34.7146 41.6423 34.6491 41.5877C34.5776 41.5275 34.5146 41.4579 34.4616 41.3809C34.4 41.2919 34.3453 41.1983 34.2981 41.1009C34.2522 41.0997 34.2092 41.0975 34.1688 41.0944C34.1285 41.0913 34.0911 41.0867 34.0566 41.0806L34.0919 40.8001C34.1312 40.8066 34.171 40.8103 34.2108 40.8112C34.2539 40.8124 34.2973 40.813 34.3409 40.813C34.407 40.8139 34.4727 40.8016 34.5341 40.7769C34.5901 40.7542 34.6407 40.72 34.6827 40.6766C34.7238 40.6334 34.756 40.5826 34.7774 40.527C34.8001 40.4684 34.8114 40.406 34.8109 40.3431C34.8118 40.2764 34.8008 40.21 34.7785 40.1472C34.7582 40.091 34.7263 40.0398 34.6848 39.9969C34.6437 39.9548 34.5939 39.9222 34.539 39.9012C34.4782 39.8783 34.4137 39.8669 34.3487 39.8677C34.3128 39.8677 34.2778 39.8687 34.2438 39.8706C34.2122 39.8721 34.1809 39.8761 34.15 39.8826L34.1016 39.6059C34.1381 39.5959 34.1754 39.589 34.213 39.5855C34.2514 39.5818 34.2904 39.5799 34.33 39.5799C34.4505 39.5768 34.5703 39.6 34.681 39.6478C34.7732 39.6888 34.8552 39.7497 34.9213 39.826C34.9837 39.8995 35.0307 39.9847 35.0596 40.0767C35.0893 40.1697 35.1043 40.2666 35.1042 40.3642C35.1047 40.4451 35.0925 40.5257 35.068 40.6029C35.0451 40.6753 35.011 40.7436 34.9668 40.8053C34.9233 40.8653 34.8706 40.918 34.8107 40.9617C34.7498 41.0063 34.682 41.0408 34.6101 41.0638C34.6632 41.1775 34.7372 41.2803 34.8284 41.3666C34.9052 41.435 35.005 41.472 35.1079 41.47C35.1732 41.4704 35.2377 41.4557 35.2965 41.4272C35.3595 41.3951 35.4129 41.347 35.4516 41.2879C35.5015 41.211 35.537 41.1258 35.5565 41.0362C35.5842 40.911 35.597 40.7829 35.5947 40.6546L35.5947 40.2615L35.8997 40.2615L35.8997 40.581C35.8972 40.6624 35.9104 40.7434 35.9385 40.8198C35.9607 40.8777 35.9945 40.9305 36.0379 40.9749C36.0753 41.0127 36.1209 41.0416 36.1711 41.0593C36.2168 41.0754 36.2648 41.0839 36.3133 41.0843C36.3806 41.0852 36.4477 41.0754 36.5121 41.0555C36.5738 41.0351 36.632 41.0053 36.6847 40.9672L36.6847 39.6244L36.9894 39.6244L36.9895 42.0482ZM35.7803 38.5435C35.8811 38.5423 35.9819 38.5507 36.0812 38.5686C36.1606 38.5828 36.2375 38.6084 36.3097 38.6447C36.3735 38.6774 36.4315 38.7204 36.4814 38.7719C36.5325 38.8255 36.5764 38.8855 36.6124 38.9502L36.9894 39.6244L36.7386 39.7341L36.46 39.1783C36.4307 39.1172 36.3911 39.0616 36.343 39.0139C36.299 38.9716 36.2481 38.9371 36.1926 38.9118C36.1338 38.8855 36.0715 38.8677 36.0077 38.8588C35.9354 38.8486 35.8625 38.8436 35.7894 38.844L35.3569 38.844L35.3569 38.5431L35.7803 38.5435Z" fill="white"/>
<path d="M36.9894 39.6244L36.6847 39.6244L36.6847 40.9672C36.632 41.0053 36.5738 41.0351 36.5121 41.0555C36.4477 41.0754 36.3806 41.0852 36.3133 41.0843C36.2648 41.0839 36.2168 41.0754 36.1711 41.0593C36.1209 41.0416 36.0753 41.0127 36.0379 40.9749C35.9945 40.9305 35.9607 40.8777 35.9385 40.8198C35.9104 40.7434 35.8972 40.6624 35.8997 40.581L35.8997 40.2615L35.5947 40.2615L35.5947 40.6546C35.597 40.7829 35.5842 40.911 35.5565 41.0362C35.537 41.1258 35.5015 41.211 35.4516 41.2879C35.4129 41.347 35.3595 41.3951 35.2965 41.4272C35.2377 41.4557 35.1732 41.4704 35.1079 41.47C35.005 41.472 34.9052 41.435 34.8284 41.3666C34.7372 41.2803 34.6632 41.1775 34.6101 41.0638C34.682 41.0408 34.7498 41.0063 34.8107 40.9617C34.8706 40.918 34.9233 40.8653 34.9668 40.8053C35.011 40.7436 35.0451 40.6753 35.068 40.6029C35.0925 40.5257 35.1047 40.4451 35.1042 40.3642C35.1043 40.2666 35.0893 40.1697 35.0596 40.0767C35.0307 39.9847 34.9837 39.8995 34.9213 39.826C34.8552 39.7497 34.7732 39.6888 34.681 39.6478C34.5703 39.6 34.4505 39.5768 34.33 39.5799C34.2904 39.5799 34.2514 39.5818 34.213 39.5855C34.1754 39.589 34.1381 39.5959 34.1016 39.6059L34.15 39.8826C34.1809 39.8761 34.2122 39.8721 34.2438 39.8706C34.2778 39.8687 34.3128 39.8677 34.3487 39.8677C34.4137 39.8669 34.4782 39.8783 34.539 39.9012C34.5939 39.9222 34.6437 39.9548 34.6848 39.9969C34.7263 40.0398 34.7582 40.091 34.7785 40.1472C34.8008 40.21 34.8118 40.2764 34.8109 40.3431C34.8114 40.406 34.8001 40.4684 34.7774 40.527C34.756 40.5826 34.7238 40.6334 34.6827 40.6766C34.6407 40.72 34.5901 40.7542 34.5341 40.7769C34.4727 40.8016 34.407 40.8139 34.3409 40.813C34.2973 40.813 34.2539 40.8124 34.2108 40.8112C34.171 40.8103 34.1312 40.8066 34.0919 40.8001L34.0566 41.0806C34.0911 41.0867 34.1285 41.0913 34.1688 41.0944C34.2092 41.0975 34.2522 41.0997 34.2981 41.1009C34.3453 41.1983 34.4 41.2919 34.4616 41.3809C34.5146 41.4579 34.5776 41.5275 34.6491 41.5877C34.7146 41.6423 34.7889 41.6853 34.8688 41.7149C34.9507 41.7446 35.0372 41.7594 35.1242 41.7586C35.2878 41.7631 35.4479 41.7102 35.5766 41.6091C35.7112 41.4932 35.8054 41.3373 35.8453 41.1642L35.849 41.1642C35.9068 41.2295 35.9778 41.2818 36.0574 41.3175C36.1409 41.3547 36.2315 41.3734 36.323 41.3723C36.3858 41.3724 36.4485 41.3674 36.5105 41.3574C36.5698 41.3478 36.6281 41.3335 36.6851 41.3146L36.6851 42.0373C36.6806 42.1151 36.7029 42.1922 36.7483 42.2556C36.7709 42.2823 36.7995 42.3035 36.8318 42.3172C36.864 42.3309 36.8991 42.3368 36.934 42.3345C37.0091 42.3327 37.0833 42.3186 37.1538 42.2928C37.2376 42.2635 37.3178 42.2245 37.3925 42.1765L37.2568 41.857L36.9895 42.0482L36.9894 39.6244ZM36.9894 39.6244L36.6124 38.9502C36.5764 38.8855 36.5325 38.8255 36.4814 38.7719C36.4315 38.7204 36.3735 38.6774 36.3097 38.6447C36.2375 38.6084 36.1606 38.5828 36.0812 38.5686C35.9819 38.5507 35.8811 38.5423 35.7803 38.5435L35.3569 38.5431L35.3569 38.844L35.7894 38.844C35.8625 38.8436 35.9354 38.8486 36.0077 38.8588C36.0715 38.8677 36.1338 38.8855 36.1926 38.9118C36.2481 38.9371 36.299 38.9716 36.343 39.0139C36.3911 39.0616 36.4307 39.1172 36.46 39.1783L36.7386 39.7341L36.9894 39.6244Z" stroke="white" stroke-width="0.207842"/>
<mask id="path-6-inside-1_217_1785" fill="white">
<path d="M23.7321 39.5499C23.7321 39.5419 23.8204 39.4103 23.8204 39.4103L23.3163 39.1955C23.3163 39.1955 23.2443 39.3581 23.2204 39.3506C22.95 39.3041 22.6733 39.3096 22.405 39.3666C22.405 39.1827 22.413 39.0148 22.421 38.8626L24.1811 38.8706L24.1811 38.391L22.4609 38.3829C22.4847 38.2228 22.5167 38.0639 22.5568 37.9071L22.0931 37.8112C22.0437 38.0019 22.0063 38.1955 21.9812 38.391L20.7041 38.391L20.7041 38.8706L21.9415 38.8706C21.9255 39.0624 21.9255 39.2862 21.9255 39.5181C21.7522 39.5879 21.5884 39.6791 21.4378 39.7895C21.2775 39.8988 21.141 40.0394 21.0366 40.2029C20.9322 40.3664 20.8621 40.5494 20.8304 40.7408C20.8142 40.8864 20.8292 41.0338 20.8741 41.1733C20.9191 41.3128 20.9932 41.4411 21.0914 41.5499C21.1896 41.6586 21.3097 41.7454 21.4438 41.8043C21.578 41.8633 21.7231 41.8932 21.8696 41.892C22.1168 41.8926 22.3578 41.8141 22.5572 41.6681C23.0449 41.3084 23.3885 40.549 23.5725 40.0453C23.6112 40.0843 23.6458 40.1271 23.6759 40.1731C23.9876 40.6772 23.7477 40.9725 23.3162 41.4042L23.2363 41.4842L23.5723 41.8202L23.6443 41.7484C24.004 41.3887 24.6196 40.7891 24.076 39.926C23.9968 39.7723 23.8781 39.6425 23.7321 39.5499ZM21.4298 41.1966C21.3804 41.1403 21.3435 41.0741 21.3215 41.0025C21.2994 40.9308 21.2928 40.8554 21.302 40.781C21.3535 40.5267 21.5028 40.3028 21.7176 40.1575C21.7893 40.1075 21.8641 40.0621 21.9415 40.0215C21.9759 40.4611 22.059 40.8954 22.1893 41.3166C22.0686 41.3886 21.9266 41.416 21.7878 41.3941C21.6491 41.3722 21.5224 41.3023 21.4298 41.1966ZM22.581 40.9409C22.4912 40.5845 22.435 40.2206 22.413 39.8538C22.5571 39.8199 22.7044 39.8012 22.8524 39.7978C22.9434 39.7975 23.0343 39.8055 23.1238 39.8217L23.1399 39.8217C23.004 40.2179 22.816 40.5942 22.581 40.9409Z"/>
</mask>
<path d="M23.7321 39.5499C23.7321 39.5419 23.8204 39.4103 23.8204 39.4103L23.3163 39.1955C23.3163 39.1955 23.2443 39.3581 23.2204 39.3506C22.95 39.3041 22.6733 39.3096 22.405 39.3666C22.405 39.1827 22.413 39.0148 22.421 38.8626L24.1811 38.8706L24.1811 38.391L22.4609 38.3829C22.4847 38.2228 22.5167 38.0639 22.5568 37.9071L22.0931 37.8112C22.0437 38.0019 22.0063 38.1955 21.9812 38.391L20.7041 38.391L20.7041 38.8706L21.9415 38.8706C21.9255 39.0624 21.9255 39.2862 21.9255 39.5181C21.7522 39.5879 21.5884 39.6791 21.4378 39.7895C21.2775 39.8988 21.141 40.0394 21.0366 40.2029C20.9322 40.3664 20.8621 40.5494 20.8304 40.7408C20.8142 40.8864 20.8292 41.0338 20.8741 41.1733C20.9191 41.3128 20.9932 41.4411 21.0914 41.5499C21.1896 41.6586 21.3097 41.7454 21.4438 41.8043C21.578 41.8633 21.7231 41.8932 21.8696 41.892C22.1168 41.8926 22.3578 41.8141 22.5572 41.6681C23.0449 41.3084 23.3885 40.549 23.5725 40.0453C23.6112 40.0843 23.6458 40.1271 23.6759 40.1731C23.9876 40.6772 23.7477 40.9725 23.3162 41.4042L23.2363 41.4842L23.5723 41.8202L23.6443 41.7484C24.004 41.3887 24.6196 40.7891 24.076 39.926C23.9968 39.7723 23.8781 39.6425 23.7321 39.5499ZM21.4298 41.1966C21.3804 41.1403 21.3435 41.0741 21.3215 41.0025C21.2994 40.9308 21.2928 40.8554 21.302 40.781C21.3535 40.5267 21.5028 40.3028 21.7176 40.1575C21.7893 40.1075 21.8641 40.0621 21.9415 40.0215C21.9759 40.4611 22.059 40.8954 22.1893 41.3166C22.0686 41.3886 21.9266 41.416 21.7878 41.3941C21.6491 41.3722 21.5224 41.3023 21.4298 41.1966ZM22.581 40.9409C22.4912 40.5845 22.435 40.2206 22.413 39.8538C22.5571 39.8199 22.7044 39.8012 22.8524 39.7978C22.9434 39.7975 23.0343 39.8055 23.1238 39.8217L23.1399 39.8217C23.004 40.2179 22.816 40.5942 22.581 40.9409Z" fill="white"/>
<path d="M23.7321 39.5499L23.0649 39.5499L23.0649 39.9168L23.3748 40.1133L23.7321 39.5499ZM23.8204 39.4103L24.3744 39.782L24.8235 39.1126L24.0819 38.7966L23.8204 39.4103ZM23.3163 39.1955L23.5778 38.5818L22.9726 38.3239L22.7063 38.9254L23.3163 39.1955ZM23.2204 39.3506L23.42 38.714L23.3774 38.7007L23.3334 38.6931L23.2204 39.3506ZM22.405 39.3666L21.7378 39.3666L21.7378 40.1906L22.5438 40.0192L22.405 39.3666ZM22.421 38.8626L22.424 38.1954L21.7882 38.1925L21.7548 38.8275L22.421 38.8626ZM24.1811 38.8706L24.178 39.5377L24.8482 39.5408L24.8482 38.8706L24.1811 38.8706ZM24.1811 38.391L24.8482 38.391L24.8482 37.7269L24.1842 37.7238L24.1811 38.391ZM22.4609 38.3829L21.801 38.285L21.688 39.0465L22.4578 39.0501L22.4609 38.3829ZM22.5568 37.9071L23.2032 38.0723L23.3763 37.3953L22.692 37.2537L22.5568 37.9071ZM22.0931 37.8112L22.2282 37.1578L21.6066 37.0293L21.4473 37.6437L22.0931 37.8112ZM21.9812 38.391L21.9812 39.0581L22.5681 39.0581L22.6429 38.4759L21.9812 38.391ZM20.7041 38.391L20.7041 37.7238L20.037 37.7238L20.037 38.391L20.7041 38.391ZM20.7041 38.8706L20.037 38.8706L20.037 39.5377L20.7041 39.5377L20.7041 38.8706ZM21.9415 38.8706L22.6063 38.9261L22.6667 38.2034L21.9415 38.2034L21.9415 38.8706ZM21.9255 39.5181L22.1747 40.137L22.5926 39.9687L22.5926 39.5181L21.9255 39.5181ZM21.4378 39.7895L21.8135 40.3408L21.8231 40.3343L21.8325 40.3274L21.4378 39.7895ZM20.8304 40.7408L20.1722 40.6318L20.1693 40.6495L20.1673 40.6673L20.8304 40.7408ZM21.8696 41.892L21.8713 41.2248L21.8642 41.2249L21.8696 41.892ZM22.5572 41.6681L22.9513 42.2064L22.9532 42.205L22.5572 41.6681ZM23.5725 40.0453L24.046 39.5753L23.3061 38.8299L22.9458 39.8165L23.5725 40.0453ZM23.6759 40.1731L24.2433 39.8222L24.2389 39.8152L24.2344 39.8083L23.6759 40.1731ZM23.3162 41.4042L22.8444 40.9325L22.844 40.9328L23.3162 41.4042ZM23.2363 41.4842L22.7642 41.0128L22.2932 41.4846L22.7646 41.9559L23.2363 41.4842ZM23.5723 41.8202L23.1006 42.292L23.5719 42.7633L24.0436 42.2924L23.5723 41.8202ZM23.6443 41.7484L24.1156 42.2205L24.1161 42.2201L23.6443 41.7484ZM24.076 39.926L23.483 40.2316L23.4962 40.2572L23.5115 40.2816L24.076 39.926ZM21.4298 41.1966L21.9317 40.7571L21.9315 40.7569L21.4298 41.1966ZM21.302 40.781L20.6481 40.6485L20.643 40.6737L20.6399 40.6991L21.302 40.781ZM21.7176 40.1575L22.0914 40.7102L22.0992 40.7048L21.7176 40.1575ZM21.9415 40.0215L22.6066 39.9695L22.5278 38.9609L21.6317 39.4307L21.9415 40.0215ZM22.1893 41.3166L22.5313 41.8894L22.9816 41.6205L22.8266 41.1194L22.1893 41.3166ZM22.581 40.9409L21.9341 41.1039L22.2979 42.5473L23.1332 41.3152L22.581 40.9409ZM22.413 39.8538L22.2605 39.2043L21.7135 39.3327L21.747 39.8936L22.413 39.8538ZM22.8524 39.7978L22.8503 39.1305L22.8373 39.1308L22.8524 39.7978ZM23.1238 39.8217L23.0052 40.4782L23.064 40.4889L23.1238 40.4889L23.1238 39.8217ZM23.1399 39.8217L23.7709 40.0382L24.074 39.1546L23.1399 39.1546L23.1399 39.8217ZM24.3992 39.5499C24.3992 39.6193 24.3882 39.6732 24.3823 39.6989C24.3755 39.7285 24.368 39.7519 24.363 39.7664C24.3531 39.795 24.3435 39.8165 24.339 39.8261C24.3297 39.8464 24.3216 39.861 24.3197 39.8645C24.3146 39.8736 24.3118 39.8781 24.3142 39.8741C24.3179 39.8682 24.3251 39.8568 24.3353 39.8411C24.3448 39.8265 24.3547 39.8116 24.3623 39.8001C24.3661 39.7944 24.3692 39.7898 24.3713 39.7866C24.3724 39.785 24.3732 39.7838 24.3737 39.783C24.374 39.7826 24.3742 39.7823 24.3743 39.7821C24.3743 39.7821 24.3744 39.782 24.3744 39.782C24.3744 39.782 24.3744 39.782 24.3744 39.782C24.3744 39.782 24.3744 39.782 24.3744 39.782C24.3744 39.782 24.3744 39.782 24.3744 39.782C24.3744 39.782 24.3744 39.782 23.8204 39.4103C23.2664 39.0386 23.2663 39.0386 23.2663 39.0386C23.2663 39.0386 23.2663 39.0387 23.2663 39.0387C23.2663 39.0387 23.2663 39.0387 23.2663 39.0387C23.2663 39.0387 23.2662 39.0388 23.2662 39.0388C23.2661 39.039 23.266 39.0391 23.2659 39.0393C23.2657 39.0396 23.2654 39.0401 23.265 39.0406C23.2642 39.0418 23.2632 39.0434 23.2618 39.0454C23.2591 39.0494 23.2553 39.0551 23.2508 39.0619C23.2419 39.0753 23.2297 39.0938 23.2171 39.1131C23.2053 39.1314 23.1904 39.1543 23.1775 39.1753C23.1717 39.1848 23.1619 39.2009 23.1521 39.2187C23.1477 39.2266 23.1378 39.2448 23.1271 39.2679C23.122 39.2789 23.1119 39.3017 23.1017 39.3312C23.0981 39.3416 23.0649 39.4313 23.0649 39.5499L24.3992 39.5499ZM24.0819 38.7966L23.5778 38.5818L23.0548 39.8092L23.5588 40.0241L24.0819 38.7966ZM23.3163 39.1955C22.7063 38.9254 22.7063 38.9254 22.7063 38.9253C22.7063 38.9253 22.7063 38.9253 22.7063 38.9253C22.7064 38.9252 22.7064 38.9252 22.7064 38.9251C22.7065 38.925 22.7065 38.9249 22.7065 38.9249C22.7066 38.9247 22.7066 38.9246 22.7067 38.9245C22.7068 38.9243 22.7068 38.9243 22.7067 38.9244C22.7066 38.9246 22.7063 38.9252 22.7059 38.9263C22.7049 38.9285 22.7032 38.9321 22.7011 38.9366C22.6965 38.9464 22.6915 38.9566 22.6875 38.9642C22.6806 38.9772 22.6859 38.9652 22.7022 38.9424C22.7074 38.935 22.738 38.8914 22.7918 38.8442C22.8185 38.8209 22.8772 38.773 22.9654 38.7357C23.0565 38.6971 23.2236 38.6525 23.42 38.714L23.0208 39.9872C23.2202 40.0497 23.3906 40.0046 23.4854 39.9645C23.5773 39.9256 23.64 39.875 23.6709 39.848C23.7333 39.7933 23.7734 39.7383 23.7888 39.7167C23.8253 39.6655 23.8531 39.6142 23.8671 39.5876C23.8841 39.5555 23.8986 39.5254 23.9082 39.505C23.9132 39.4944 23.9174 39.4854 23.9204 39.4787C23.922 39.4753 23.9232 39.4725 23.9242 39.4703C23.9247 39.4692 23.9251 39.4682 23.9255 39.4675C23.9257 39.4671 23.9258 39.4667 23.926 39.4664C23.926 39.4663 23.9261 39.4661 23.9262 39.466C23.9262 39.4659 23.9262 39.4658 23.9262 39.4658C23.9262 39.4658 23.9263 39.4657 23.9263 39.4657C23.9263 39.4657 23.9263 39.4656 23.3163 39.1955ZM23.3334 38.6931C22.9796 38.6323 22.6174 38.6394 22.2662 38.7141L22.5438 40.0192C22.7292 39.9797 22.9205 39.976 23.1073 40.0081L23.3334 38.6931ZM23.0721 39.3666C23.0721 39.2013 23.0793 39.0481 23.0872 38.8976L21.7548 38.8275C21.7467 38.9815 21.7378 39.1641 21.7378 39.3666L23.0721 39.3666ZM22.418 39.5297L24.178 39.5377L24.1841 38.2035L22.424 38.1954L22.418 39.5297ZM24.8482 38.8706L24.8482 38.391L23.5139 38.391L23.5139 38.8706L24.8482 38.8706ZM24.1842 37.7238L22.4641 37.7158L22.4578 39.0501L24.178 39.0581L24.1842 37.7238ZM23.1209 38.4809C23.1413 38.3434 23.1687 38.207 23.2032 38.0723L21.9105 37.7418C21.8647 37.9208 21.8282 38.1022 21.801 38.285L23.1209 38.4809ZM22.692 37.2537L22.2282 37.1578L21.958 38.4645L22.4217 38.5604L22.692 37.2537ZM21.4473 37.6437C21.3908 37.8616 21.3481 38.0828 21.3195 38.306L22.6429 38.4759C22.6644 38.3083 22.6965 38.1422 22.7389 37.9786L21.4473 37.6437ZM21.9812 37.7238L20.7041 37.7238L20.7041 39.0581L21.9812 39.0581L21.9812 37.7238ZM20.037 38.391L20.037 38.8706L21.3712 38.8706L21.3712 38.391L20.037 38.391ZM20.7041 39.5377L21.9415 39.5377L21.9415 38.2034L20.7041 38.2034L20.7041 39.5377ZM21.2767 38.815C21.2579 39.0402 21.2583 39.2942 21.2583 39.5181L22.5926 39.5181C22.5926 39.2783 22.5931 39.0846 22.6063 38.9261L21.2767 38.815ZM21.6763 38.8993C21.4514 38.9898 21.2387 39.1082 21.0432 39.2516L21.8325 40.3274C21.9381 40.2499 22.0531 40.1859 22.1747 40.137L21.6763 38.8993ZM21.0621 39.2382C20.8273 39.3983 20.6273 39.6043 20.4744 39.8438L21.5989 40.562C21.6548 40.4745 21.7278 40.3993 21.8135 40.3408L21.0621 39.2382ZM20.4744 39.8438C20.3214 40.0834 20.2186 40.3515 20.1722 40.6318L21.4886 40.8497C21.5055 40.7473 21.543 40.6494 21.5989 40.562L20.4744 39.8438ZM20.1673 40.6673C20.1408 40.9067 20.1653 41.1489 20.2392 41.3781L21.5091 40.9685C21.493 40.9188 21.4877 40.8662 21.4935 40.8142L20.1673 40.6673ZM20.2392 41.3781C20.3131 41.6073 20.4348 41.8182 20.5962 41.9969L21.5866 41.1028C21.5515 41.064 21.5251 41.0182 21.5091 40.9685L20.2392 41.3781ZM20.5962 41.9969C20.7575 42.1757 20.9549 42.3182 21.1754 42.4151L21.7123 41.1936C21.6644 41.1726 21.6216 41.1416 21.5866 41.1028L20.5962 41.9969ZM21.1754 42.4151C21.3958 42.512 21.6343 42.5611 21.8751 42.5591L21.8642 41.2249C21.8119 41.2253 21.7601 41.2146 21.7123 41.1936L21.1754 42.4151ZM21.868 42.5591C22.2575 42.5601 22.6371 42.4365 22.9513 42.2064L22.1631 41.1298C22.0785 41.1918 21.9762 41.2251 21.8713 41.2248L21.868 42.5591ZM22.9532 42.205C23.3055 41.9452 23.5688 41.5734 23.7582 41.2413C23.9529 40.9 24.0995 40.5469 24.1991 40.2741L22.9458 39.8165C22.8615 40.0474 22.7443 40.3259 22.5993 40.5802C22.449 40.8435 22.2966 41.0314 22.1612 41.1312L22.9532 42.205ZM23.099 40.5153C23.1058 40.5222 23.112 40.5298 23.1173 40.538L24.2344 39.8083C24.1796 39.7244 24.1165 39.6464 24.046 39.5753L23.099 40.5153ZM23.1085 40.524C23.1519 40.5943 23.1525 40.6194 23.151 40.6091C23.1503 40.6036 23.1499 40.5947 23.1512 40.5845C23.1525 40.5748 23.1545 40.57 23.1538 40.5719C23.1509 40.5793 23.1356 40.6122 23.0807 40.6796C23.0256 40.7474 22.9506 40.8262 22.8444 40.9325L23.788 41.8759C23.9861 41.6777 24.2615 41.4014 24.3957 41.0597C24.5641 40.631 24.4834 40.2105 24.2433 39.8222L23.1085 40.524ZM22.844 40.9328L22.7642 41.0128L23.7084 41.9556L23.7883 41.8756L22.844 40.9328ZM22.7646 41.9559L23.1006 42.292L24.0441 41.3485L23.708 41.0125L22.7646 41.9559ZM24.0436 42.2924L24.1156 42.2205L23.173 41.2762L23.101 41.3481L24.0436 42.2924ZM24.1161 42.2201C24.2787 42.0575 24.6212 41.7303 24.8112 41.2908C25.0273 40.7911 25.0325 40.1929 24.6405 39.5705L23.5115 40.2816C23.5972 40.4176 23.6188 40.5125 23.623 40.5719C23.6273 40.6315 23.6167 40.6916 23.5866 40.7612C23.5148 40.9271 23.3696 41.0796 23.1726 41.2766L24.1161 42.2201ZM24.669 39.6204C24.5355 39.3614 24.3355 39.1426 24.0894 38.9865L23.3748 40.1133C23.4207 40.1424 23.4581 40.1833 23.483 40.2316L24.669 39.6204ZM21.9315 40.7569C21.9441 40.7712 21.9535 40.7881 21.9591 40.8064L20.6838 41.1986C20.7335 41.3601 20.8167 41.5093 20.9281 41.6364L21.9315 40.7569ZM21.9591 40.8064C21.9647 40.8246 21.9664 40.8439 21.9641 40.8628L20.6399 40.6991C20.6192 40.8668 20.6341 41.037 20.6838 41.1986L21.9591 40.8064ZM21.9559 40.9134C21.9726 40.8305 22.0213 40.7575 22.0914 40.7101L21.3439 39.6049C20.9842 39.8481 20.7343 40.2229 20.6481 40.6485L21.9559 40.9134ZM22.0992 40.7048C22.1479 40.6708 22.1987 40.6399 22.2513 40.6124L21.6317 39.4307C21.5295 39.4843 21.4308 39.5442 21.3361 39.6102L22.0992 40.7048ZM21.2764 40.0735C21.3146 40.5623 21.407 41.0454 21.5519 41.5138L22.8266 41.1194C22.7109 40.7454 22.6371 40.3598 22.6066 39.9695L21.2764 40.0735ZM21.8472 40.7438C21.8606 40.7358 21.8765 40.7327 21.8919 40.7352L21.6838 42.0531C21.9767 42.0994 22.2767 42.0414 22.5313 41.8894L21.8472 40.7438ZM21.8919 40.7352C21.9073 40.7376 21.9214 40.7454 21.9317 40.7571L20.9279 41.6361C21.1233 41.8593 21.3908 42.0068 21.6838 42.0531L21.8919 40.7352ZM23.2279 40.7778C23.1483 40.4619 23.0984 40.1391 23.0789 39.8139L21.747 39.8936C21.7715 40.302 21.8341 40.7072 21.9341 41.1039L23.2279 40.7778ZM22.5655 40.5032C22.6646 40.48 22.7658 40.4671 22.8676 40.4648L22.8373 39.1308C22.643 39.1353 22.4497 39.1599 22.2605 39.2043L22.5655 40.5032ZM22.8545 40.4649C22.905 40.4648 22.9554 40.4692 23.0052 40.4782L23.2425 39.1652C23.1131 39.1418 22.9819 39.1303 22.8503 39.1307L22.8545 40.4649ZM23.1238 40.4889L23.1399 40.4889L23.1399 39.1546L23.1238 39.1546L23.1238 40.4889ZM22.5088 39.6052C22.3921 39.9455 22.2307 40.2687 22.0288 40.5665L23.1332 41.3152C23.4014 40.9197 23.6158 40.4902 23.7709 40.0382L22.5088 39.6052Z" fill="white" mask="url(#path-6-inside-1_217_1785)"/>
<path d="M30.4944 35.4908L30.0476 35.4908L29.6824 34.525L28.2215 34.525L27.878 35.4908L27.4287 35.4908L28.7501 32.0459L29.1682 32.0459L30.4944 35.4908ZM29.5502 34.1622L29.0096 32.6941C28.9856 32.6188 28.9679 32.5416 28.9568 32.4634L28.9472 32.4634C28.9359 32.5418 28.9174 32.619 28.8919 32.6941L28.3561 34.1622L29.5502 34.1622Z" fill="white" stroke="white" stroke-width="0.200142"/>
<mask id="mask0_217_1785" style="mask-type:luminance" maskUnits="userSpaceOnUse" x="26" y="45" width="6" height="4">
<path d="M30.8662 45.587L30.8662 48.3546L27.0635 48.3546L27.0635 45.587L30.8662 45.587Z" fill="white" stroke="white" stroke-width="0.66714"/>
</mask>
<g mask="url(#mask0_217_1785)">
<path d="M30.2789 47.8585C30.2789 47.6259 30.2789 47.3937 30.2789 47.1619C30.2789 46.6712 30.2793 46.1805 30.28 45.6898C30.28 45.5816 30.28 45.5815 30.1746 45.5815L26.8434 45.5815C26.7296 45.5813 26.7296 45.5812 26.7296 45.4695C26.7288 45.2531 26.7288 45.2531 26.9444 45.2531L31.0803 45.2531C31.2002 45.2531 31.2002 45.2531 31.2002 45.3731C31.2002 45.5813 31.2002 45.5813 30.9952 45.5813L30.7521 45.5813C30.6394 45.5813 30.6394 45.5813 30.6394 45.6904C30.6394 46.0976 30.6394 46.5048 30.6394 46.9121C30.6394 47.471 30.6391 48.03 30.6386 48.589C30.6386 48.6278 30.6587 48.6804 30.5891 48.6872C30.5272 48.6935 30.4866 48.6809 30.4661 48.6097C30.3454 48.2165 30.0907 47.878 29.7462 47.6533C29.6631 47.5949 29.6655 47.6016 29.604 47.6778C29.5227 47.7905 29.43 47.8944 29.3274 47.988C29.2088 48.0798 29.0696 48.1411 28.9218 48.1666C28.7741 48.1921 28.6223 48.1809 28.4798 48.1342C28.1662 48.043 27.8908 47.8521 27.6953 47.5905C27.3865 47.1945 27.1571 46.7427 27.0195 46.2599C26.986 46.1565 26.9569 46.0519 26.9304 45.9467C26.9099 45.8649 26.9592 45.8092 27.0408 45.8244C27.0616 45.8283 27.084 45.8622 27.0925 45.8869C27.179 46.1324 27.2451 46.3863 27.351 46.6225C27.5092 47.0137 27.8002 47.3366 28.1729 47.5345C28.3181 47.6108 28.4788 47.6529 28.6428 47.6573C28.8067 47.6618 28.9696 47.6286 29.1187 47.5604C29.2723 47.4877 29.3981 47.367 29.4772 47.2166C29.5563 47.0662 29.5844 46.8942 29.5572 46.7265C29.5358 46.5489 29.4518 46.3848 29.3204 46.2635C29.2267 46.1766 29.1039 46.1279 28.9761 46.1269C28.885 46.1252 28.8708 46.1483 28.8885 46.2367C28.9143 46.3309 28.9289 46.4279 28.9319 46.5255C28.9197 46.8028 28.7381 46.952 28.4443 46.9436C28.3311 46.9364 28.2249 46.8863 28.1474 46.8035C28.0698 46.7206 28.0268 46.6114 28.0271 46.4979C27.9909 46.0483 28.3502 45.8323 28.6971 45.8129C28.942 45.8033 29.1822 45.882 29.3739 46.0348C29.5655 46.1875 29.6958 46.4041 29.741 46.645C29.779 46.8052 29.7858 46.9712 29.7609 47.134C29.7541 47.1685 29.7556 47.2041 29.7655 47.2379C29.7754 47.2716 29.7933 47.3025 29.8177 47.3278C29.968 47.5013 30.1109 47.6812 30.2571 47.8585L30.2789 47.8585Z" fill="white" stroke="white" stroke-width="0.200142"/>
</g>
<path d="M29.668 26.8944C36.8825 26.8944 42.957 33.2352 42.957 39.9178C42.957 46.7388 37.5352 53.3934 29.668 53.3934C22.1185 53.3932 16.4428 47.2291 16.6152 39.9628L16.6162 39.9188L16.6152 39.8739C16.4461 32.628 22.8802 26.8946 29.668 26.8944Z" stroke="#333333" stroke-width="3.77895"/>
<path d="M39.0293 9.36914H44.8291V55.1183H39.6277L39.1329 28.8539L39.0293 9.36914Z" fill="#333333"/>
<path d="M50.8569 12.88H32.7285V15.4894H50.8569V12.88Z" fill="#00A9EE"/>
</svg>
